<svg xmlns="http://www.w3.org/2000/svg" viewBox="0 0 480 600" role="img" aria-labelledby="title desc">
  <title id="title">Portrait illustration of Sarah</title>
  <desc id="desc">A stylized portrait illustration used for a testimonial card.</desc>
  <defs>
    <linearGradient id="bg" x1="0" y1="0" x2="1" y2="1">
      <stop offset="0%" stop-color="#f59e0b" />
      <stop offset="46%" stop-color="#84cc16" />
      <stop offset="100%" stop-color="#0f766e" />
    </linearGradient>
    <linearGradient id="blazer" x1="0" y1="0" x2="1" y2="1">
      <stop offset="0%" stop-color="#14532d" />
      <stop offset="100%" stop-color="#84cc16" />
    </linearGradient>
  </defs>
  <rect width="480" height="600" fill="url(#bg)" />
  <circle cx="82" cy="108" r="110" fill="#ffffff" opacity=".14" />
  <circle cx="382" cy="154" r="92" fill="#0f172a" opacity=".14" />
  <ellipse cx="240" cy="650" rx="232" ry="220" fill="#14532d" opacity=".86" />
  <ellipse cx="240" cy="472" rx="154" ry="126" fill="url(#blazer)" />
  <path d="M170 428c20-32 49-51 70-51 21 0 50 19 70 51v80H170Z" fill="#f8fafc" opacity=".94" />
  <rect x="214" y="314" width="52" height="90" rx="26" fill="#f2bf94" />
  <ellipse cx="240" cy="236" rx="86" ry="102" fill="#f2bf94" />
  <path d="M157 242c0-82 36-128 90-128 47 0 97 40 97 110 0 28-7 50-11 64-14-25-40-46-80-46-37 0-63 12-91 33-3-10-5-30-5-33z" fill="#8b5e34" />
  <path d="M167 248c8 66 38 110 73 110 48 0 81-63 81-121-19 23-42 33-78 33-29 0-49-7-76-22z" fill="#f2bf94" />
  <circle cx="208" cy="239" r="5" fill="#4b2e1c" />
  <circle cx="272" cy="239" r="5" fill="#4b2e1c" />
  <path d="M223 281c10 8 24 8 34 0" fill="none" stroke="#92400e" stroke-linecap="round" stroke-width="4" />
  <path d="M209 294c8 16 55 16 63 0" fill="none" stroke="#9a3412" stroke-linecap="round" stroke-width="5" />
  <path d="M164 244c18-10 42-18 71-18 43 0 76 20 99 56-4-77-48-122-99-122-50 0-87 35-93 84 7 3 14 3 22 0z" fill="#d6a96b" opacity=".55" />
</svg>
